<svg width="500" height="500" viewBox="0 0 500 500" fill="none" xmlns="http://www.w3.org/2000/svg">
<g clip-path="url(#clip0_0_1)">
<mask id="mask0_0_1" style="mask-type:luminance" maskUnits="userSpaceOnUse" x="0" y="0" width="500" height="500">
<path d="M500 0H0V500H500V0Z" fill="white"/>
</mask>
<g mask="url(#mask0_0_1)">
<path d="M408.183 175.322L329.916 97.0556L436.787 68.4493L408.183 175.322Z" stroke="black" stroke-width="27.78"/>
<path d="M417.844 87.9806L410.306 120.837L384.988 95.5184L417.844 87.9806Z" fill="black"/>
<path d="M257.931 248.727L257.93 248.727C252.506 243.303 242.692 244.322 236.011 251.003L196.104 290.911C189.422 297.592 188.403 307.406 193.828 312.83L193.828 312.83C199.252 318.255 209.066 317.236 215.747 310.554L255.655 270.647C262.336 263.965 263.355 254.152 257.931 248.727Z" fill="black"/>
<path d="M91.8873 244.449L258.584 409.336L219.614 409.428L91.7722 282.974L91.8873 244.449Z" fill="black"/>
<path d="M173.717 362.983L141.118 330.385L59.833 411.671L92.4311 444.269L173.717 362.983Z" fill="black"/>
<path d="M334.291 117.274L314.648 97.6307L113.797 298.482L133.44 318.126L334.291 117.274Z" fill="black"/>
<path d="M415.83 183.613L396.187 163.969L195.335 364.821L214.978 384.464L415.83 183.613Z" fill="black"/>
<path d="M122.148 440.244L64.4106 382.507L44.7672 402.151L102.504 459.888L122.148 440.244Z" fill="black"/>
</g>
</g>
<defs>
<clipPath id="clip0_0_1">
<rect width="500" height="500" fill="white"/>
</clipPath>
</defs>
</svg>
