<svg width="500" height="500" viewBox="0 0 500 500" fill="none" xmlns="http://www.w3.org/2000/svg">
<g clip-path="url(#clip0_0_1)">
<rect width="500" height="500" fill="white"/>
<path d="M305 452C305 418.848 291.83 387.054 268.388 363.612C244.946 340.17 213.152 327 180 327C146.848 327 115.054 340.17 91.6117 363.612C68.1696 387.054 55 418.848 55 452L180 452H305Z" fill="black"/>
<circle cx="180.5" cy="246.5" r="62.5" fill="black"/>
<path d="M337.5 269C366.806 269 394.913 280.694 415.636 301.511C436.359 322.327 448 350.561 448 380H303.552C297.409 369.458 289.892 359.659 281.116 350.884C269.747 339.515 256.66 330.259 242.466 323.366C247.131 315.467 252.79 308.115 259.364 301.511C280.087 280.694 308.194 269 337.5 269Z" fill="black"/>
<circle cx="345" cy="203" r="48" fill="black"/>
<path d="M393 160.668C387.924 154.916 381.83 150.084 375 146.453V60H126V186.975C119.425 192.993 113.858 200.096 109.584 208H108V42H393V160.668ZM282.321 190C281.455 194.198 281 198.546 281 203C281 204.683 281.065 206.35 281.192 208H250.416C246.838 201.383 242.353 195.328 237.13 190H282.321Z" fill="black"/>
</g>
<defs>
<clipPath id="clip0_0_1">
<rect width="500" height="500" fill="white"/>
</clipPath>
</defs>
</svg>
