<svg width="500" height="500" viewBox="0 0 500 500" fill="none" xmlns="http://www.w3.org/2000/svg">
<path d="M300 472.063C300 438.911 286.83 407.117 263.388 383.675C239.946 360.233 208.152 347.063 175 347.063C141.848 347.063 110.054 360.233 86.6117 383.675C63.1696 407.117 50 438.911 50 472.063H175H300Z" fill="black"/>
<path d="M175.5 322.063C210.018 322.063 238 294.081 238 259.563C238 225.045 210.018 197.063 175.5 197.063C140.982 197.063 113 225.045 113 259.563C113 294.081 140.982 322.063 175.5 322.063Z" fill="black"/>
<path d="M339.5 282.063C368.806 282.063 396.913 293.757 417.636 314.574C438.359 335.39 450 363.624 450 393.063H305.552C299.409 382.521 291.892 372.722 283.116 363.947C271.747 352.578 258.66 343.322 244.466 336.429C249.131 328.53 254.79 321.178 261.364 314.574C282.087 293.757 310.194 282.063 339.5 282.063Z" fill="black"/>
<path d="M340 259.063C366.51 259.063 388 237.573 388 211.063C388 184.553 366.51 163.063 340 163.063C313.49 163.063 292 184.553 292 211.063C292 237.573 313.49 259.063 340 259.063Z" fill="black"/>
<path d="M268.69 204.339C268.479 206.567 268.37 208.824 268.37 211.106C268.37 218.422 269.48 225.479 271.538 232.119H257.657C254.253 221.888 249.011 212.498 242.321 204.339H268.69ZM382.847 155.237C374.8 148.947 365.36 144.359 355.066 142.011V55.7173H134.935V181.832C124.202 187.316 114.752 194.952 107.154 204.171V27.937H382.847V155.237Z" fill="black"/>
</svg>
