<svg width="500" height="500" viewBox="0 0 500 500" fill="none" xmlns="http://www.w3.org/2000/svg">
<rect x="313" y="270" width="126" height="136" stroke="black" stroke-width="18"/>
<rect x="61" y="204" width="126" height="202" stroke="black" stroke-width="18"/>
<rect x="187" y="94" width="126" height="312" stroke="black" stroke-width="18"/>
<path d="M285 145C285 149.596 284.095 154.148 282.336 158.394C280.577 162.64 277.999 166.499 274.749 169.749C271.499 172.999 267.64 175.577 263.394 177.336C259.148 179.095 254.596 180 250 180C245.404 180 240.852 179.095 236.606 177.336C232.36 175.577 228.501 172.999 225.251 169.749C222.001 166.499 219.423 162.64 217.664 158.394C215.905 154.148 215 149.596 215 145L250 145H285Z" fill="black"/>
<path d="M273 205.5C273 202.545 272.418 199.619 271.287 196.89C270.157 194.16 268.499 191.679 266.41 189.59C264.321 187.501 261.84 185.843 259.11 184.713C256.381 183.582 253.455 183 250.5 183C247.545 183 244.619 183.582 241.89 184.713C239.16 185.843 236.679 187.501 234.59 189.59C232.501 191.679 230.843 194.16 229.713 196.89C228.582 199.619 228 202.545 228 205.5L250.5 205.5H273Z" fill="black"/>
<rect x="215" y="119" width="70" height="26" fill="black"/>
<rect x="228" y="205" width="45" height="8" fill="black"/>
<rect x="240" y="168" width="21" height="24" fill="black"/>
</svg>
