<svg width="500" height="500" viewBox="0 0 500 500" fill="none" xmlns="http://www.w3.org/2000/svg">
<path d="M439 270H313V406H439V270Z" stroke="black" stroke-width="27.78"/>
<path d="M187 204H61V406H187V204Z" stroke="black" stroke-width="27.78"/>
<path d="M313 94H187V406H313V94Z" stroke="black" stroke-width="27.78"/>
<path d="M285 147C285 151.596 284.095 156.148 282.336 160.394C280.577 164.64 277.999 168.499 274.749 171.749C271.499 174.999 267.64 177.577 263.394 179.336C259.148 181.095 254.596 182 250 182C245.404 182 240.852 181.095 236.606 179.336C232.36 177.577 228.501 174.999 225.251 171.749C222.001 168.499 219.423 164.64 217.664 160.394C215.905 156.148 215 151.596 215 147H250H285Z" fill="black"/>
<path d="M273 207.5C273 204.545 272.418 201.619 271.287 198.89C270.157 196.16 268.499 193.679 266.41 191.59C264.321 189.501 261.84 187.843 259.11 186.713C256.381 185.582 253.455 185 250.5 185C247.545 185 244.619 185.582 241.89 186.713C239.16 187.843 236.679 189.501 234.59 191.59C232.501 193.679 230.843 196.16 229.713 198.89C228.582 201.619 228 204.545 228 207.5H250.5H273Z" fill="black"/>
<path d="M285 121H215V147H285V121Z" fill="black"/>
<path d="M273 207H228V215H273V207Z" fill="black"/>
<path d="M264.78 170H237V194H264.78V170Z" fill="black"/>
</svg>
