<svg width="500" height="500" viewBox="0 0 500 500" fill="none" xmlns="http://www.w3.org/2000/svg">
<g clip-path="url(#clip0_0_1)">
<mask id="mask0_0_1" style="mask-type:luminance" maskUnits="userSpaceOnUse" x="0" y="0" width="500" height="500">
<path d="M500 0H0V500H500V0Z" fill="white"/>
</mask>
<g mask="url(#mask0_0_1)">
<path d="M366.882 146.125C366.882 130.773 363.858 115.572 357.983 101.389C352.108 87.2045 343.497 74.3178 332.642 63.4626C321.787 52.6073 308.9 43.9964 294.717 38.1216C280.533 32.2468 265.332 29.2231 249.98 29.2231C234.629 29.2231 219.427 32.2468 205.244 38.1216C191.061 43.9964 178.174 52.6073 167.319 63.4626C156.464 74.3179 147.853 87.2045 141.978 101.389C136.103 115.572 133.079 130.773 133.079 146.125H160.881C160.881 134.424 163.185 122.838 167.663 112.028C172.141 101.217 178.704 91.3945 186.977 83.121C195.251 74.8473 205.073 68.2842 215.883 63.8065C226.694 59.3288 238.28 57.0242 249.98 57.0242C261.681 57.0242 273.267 59.3288 284.078 63.8065C294.888 68.2842 304.71 74.8473 312.984 83.1209C321.257 91.3945 327.82 101.217 332.298 112.028C336.776 122.838 339.08 134.424 339.08 146.125H366.882Z" fill="black"/>
<path d="M145.673 245.617C144.727 250.58 143.276 255.445 141.334 260.136C137.603 269.143 132.135 277.327 125.241 284.221C118.348 291.114 110.164 296.581 101.157 300.312V300.313C96.4672 302.256 91.6013 303.705 86.6384 304.65V304.586C91.5925 303.641 96.4493 302.193 101.132 300.253L101.133 300.254C110.132 296.527 118.308 291.063 125.196 284.175C132.084 277.287 137.547 269.11 141.274 260.11C143.214 255.428 144.664 250.571 145.608 245.617H145.673Z" fill="black" stroke="black" stroke-width="27.78"/>
<path d="M339.165 233.014C339.165 244.587 341.445 256.047 345.873 266.739C350.302 277.431 356.793 287.146 364.977 295.329C373.16 303.512 382.875 310.003 393.567 314.432C404.259 318.861 415.718 321.14 427.291 321.14V293.296C419.375 293.296 411.536 291.737 404.222 288.708C396.908 285.678 390.263 281.238 384.665 275.64C379.067 270.043 374.627 263.397 371.598 256.083C368.568 248.77 367.009 240.931 367.009 233.014H339.165Z" fill="black"/>
<path d="M160.874 144.838H133.158V231.727H160.874V144.838Z" fill="black"/>
<path d="M366.881 146.125H339.165V233.014H366.881V146.125Z" fill="black"/>
<path d="M427.251 293.359H72.7092V321.14H427.251V293.359Z" fill="black"/>
<circle cx="250" cy="408.777" r="50" stroke="black" stroke-width="27.78"/>
</g>
</g>
<defs>
<clipPath id="clip0_0_1">
<rect width="500" height="500" fill="white"/>
</clipPath>
</defs>
</svg>
