<svg width="500" height="500" viewBox="0 0 500 500" fill="none" xmlns="http://www.w3.org/2000/svg">
<g clip-path="url(#clip0_0_1)">
<path d="M366.862 160.183C366.862 144.831 363.838 129.63 357.963 115.447C352.088 101.263 343.477 88.3763 332.622 77.5211C321.767 66.6658 308.88 58.0549 294.697 52.1801C280.513 46.3053 265.312 43.2816 249.96 43.2816C234.609 43.2816 219.407 46.3053 205.224 52.1801C191.041 58.0549 178.154 66.6658 167.299 77.5211C156.444 88.3764 147.833 101.263 141.958 115.447C136.083 129.63 133.059 144.831 133.059 160.183L160.861 160.183C160.861 148.482 163.165 136.896 167.643 126.086C172.121 115.275 178.684 105.453 186.957 97.1795C195.231 88.9058 205.053 82.3427 215.863 77.865C226.674 73.3873 238.26 71.0827 249.96 71.0827C261.661 71.0827 273.247 73.3873 284.058 77.865C294.868 82.3427 304.69 88.9058 312.964 97.1794C321.237 105.453 327.8 115.275 332.278 126.086C336.756 136.896 339.06 148.482 339.06 160.183H366.862Z" fill="black"/>
<path d="M366.862 158.764C366.862 143.413 363.838 128.211 357.963 114.028C352.088 99.8451 343.477 86.958 332.622 76.1027C321.767 65.2475 308.88 56.6366 294.697 50.7618C280.513 44.887 265.312 41.8632 249.96 41.8632C234.609 41.8632 219.407 44.887 205.224 50.7618C191.041 56.6366 178.154 65.2475 167.299 76.1027C156.444 86.958 147.833 99.8451 141.958 114.028C136.083 128.211 133.059 143.413 133.059 158.764L160.861 158.764C160.861 147.064 163.165 135.477 167.643 124.667C172.121 113.857 178.684 104.035 186.957 95.7611C195.231 87.4874 205.053 80.9244 215.863 76.4467C226.674 71.969 238.26 69.6644 249.96 69.6644C261.661 69.6644 273.247 71.969 284.058 76.4467C294.868 80.9244 304.69 87.4874 312.964 95.7611C321.237 104.035 327.8 113.857 332.278 124.667C336.756 135.477 339.06 147.063 339.06 158.764H366.862Z" fill="black"/>
<mask id="path-3-outside-1_0_1" maskUnits="userSpaceOnUse" x="190.676" y="347.568" width="119" height="119" fill="black">
<rect fill="white" x="190.676" y="347.568" width="119" height="119"/>
<path d="M301.245 406.852C301.245 435.176 278.284 458.137 249.961 458.137C221.637 458.137 198.676 435.176 198.676 406.852C198.676 378.529 221.637 355.568 249.961 355.568C278.284 355.568 301.245 378.529 301.245 406.852ZM210.872 406.852C210.872 428.44 228.373 445.94 249.961 445.94C271.548 445.94 289.049 428.44 289.049 406.852C289.049 385.265 271.548 367.764 249.961 367.764C228.373 367.764 210.872 385.265 210.872 406.852Z"/>
</mask>
<path d="M301.245 406.852C301.245 435.176 278.284 458.137 249.961 458.137C221.637 458.137 198.676 435.176 198.676 406.852C198.676 378.529 221.637 355.568 249.961 355.568C278.284 355.568 301.245 378.529 301.245 406.852ZM210.872 406.852C210.872 428.44 228.373 445.94 249.961 445.94C271.548 445.94 289.049 428.44 289.049 406.852C289.049 385.265 271.548 367.764 249.961 367.764C228.373 367.764 210.872 385.265 210.872 406.852Z" fill="black"/>
<path d="M301.245 406.852C301.245 435.176 278.284 458.137 249.961 458.137C221.637 458.137 198.676 435.176 198.676 406.852C198.676 378.529 221.637 355.568 249.961 355.568C278.284 355.568 301.245 378.529 301.245 406.852ZM210.872 406.852C210.872 428.44 228.373 445.94 249.961 445.94C271.548 445.94 289.049 428.44 289.049 406.852C289.049 385.265 271.548 367.764 249.961 367.764C228.373 367.764 210.872 385.265 210.872 406.852Z" stroke="black" stroke-width="16" mask="url(#path-3-outside-1_0_1)"/>
<path d="M160.855 245.786C160.855 257.359 158.575 268.818 154.147 279.51C149.718 290.202 143.227 299.917 135.043 308.101C126.86 316.284 117.145 322.775 106.453 327.204C95.7614 331.633 84.3019 333.912 72.729 333.912L72.729 306.068C80.6454 306.068 88.4842 304.509 95.7979 301.479C103.112 298.45 109.757 294.01 115.355 288.412C120.953 282.814 125.393 276.169 128.422 268.855C131.452 261.541 133.011 253.702 133.011 245.786H160.855Z" fill="black"/>
<path d="M339.145 247.072C339.145 258.645 341.425 270.105 345.853 280.797C350.282 291.489 356.773 301.204 364.957 309.387C373.14 317.57 382.855 324.061 393.547 328.49C404.239 332.919 415.698 335.198 427.271 335.198L427.271 307.354C419.355 307.354 411.516 305.795 404.202 302.766C396.888 299.736 390.243 295.296 384.645 289.698C379.047 284.101 374.607 277.455 371.578 270.141C368.548 262.828 366.989 254.989 366.989 247.072H339.145Z" fill="black"/>
<rect x="133.138" y="158.896" width="27.7165" height="86.8898" fill="black"/>
<rect x="339.145" y="160.183" width="27.7165" height="86.8898" fill="black"/>
<rect x="72.6895" y="307.417" width="354.542" height="27.7817" fill="black"/>
</g>
<defs>
<clipPath id="clip0_0_1">
<rect width="500" height="500" fill="white"/>
</clipPath>
</defs>
</svg>
